<svg width="35" height="36" viewBox="0 0 35 36" fill="none" xmlns="http://www.w3.org/2000/svg">
<path d="M32.5 0.5C33.8281 0.5 35 1.67188 35 3.07812V33C35 34.4062 33.8281 35.5 32.5 35.5H2.42188C1.09375 35.5 0 34.4062 0 33V3.07812C0 1.67188 1.09375 0.5 2.42188 0.5H32.5ZM10.5469 30.5V13.8594H5.39062V30.5H10.5469ZM7.96875 11.5156C9.60938 11.5156 10.9375 10.1875 10.9375 8.54688C10.9375 6.90625 9.60938 5.5 7.96875 5.5C6.25 5.5 4.92188 6.90625 4.92188 8.54688C4.92188 10.1875 6.25 11.5156 7.96875 11.5156ZM30 30.5V21.3594C30 16.9062 28.9844 13.3906 23.75 13.3906C21.25 13.3906 19.5312 14.7969 18.8281 16.125H18.75V13.8594H13.8281V30.5H18.9844V22.2969C18.9844 20.1094 19.375 18 22.1094 18C24.7656 18 24.7656 20.5 24.7656 22.375V30.5H30Z" fill="black"/>
</svg>
